# xmcd
#
# Track frame offsets:
#	150
#	2219
#	21526
#	39175
#	59294
#	77646
#	96474
#	117118
#	140263
#	159256
#
# Disc length: 2438 seconds
#
# Revision: 2
# Processed by: cddbd v1.5.2PL0 Copyright (c) Steve Scherf et al.
# Submitted via: EasyCDDAExtractor 10.0.6.1
#
DISCID=7609840a
DTITLE=eysuhl™ 조관우 - 조관우 [1997 Cream ckc0030] Waiting
DYEAR=1997
DGENRE=Pop
TTITLE0=Intro
TTITLE1=Blue Christmas
TTITLE2=삐리의 계획
TTITLE3=길
TTITLE4=ID Date
TTITLE5=이제 너, 혼자남겨진후
TTITLE6=한번쯤
TTITLE7=그래도 넌
TTITLE8=별
TTITLE9=삐리의 계획 (Remix)
EXTD=YEAR: 1997 ID3G: 116
EXTT0=
EXTT1=
EXTT2=
EXTT3=
EXTT4=
EXTT5=
EXTT6=
EXTT7=
EXTT8=
EXTT9=
PLAYORDER=
